<svg id="svg" xmlns="http://www.w3.org/2000/svg" xmlns:xlink="http://www.w3.org/1999/xlink" width="400" height="400" viewBox="0, 0, 400,400"><g id="svgg"><path id="path0" d="M58.598 58.602 L 0.000 117.204 0.000 138.202 L 0.000 159.200 25.200 159.200 L 50.400 159.200 50.400 148.597 L 50.400 137.995 94.603 93.797 L 138.805 49.600 200.805 49.600 L 262.805 49.600 307.003 93.803 L 351.200 138.005 351.200 148.603 L 351.200 159.200 375.600 159.200 L 400.000 159.200 400.000 137.398 L 400.000 115.596 342.198 57.798 L 284.396 -0.000 200.796 -0.000 L 117.196 0.000 58.598 58.602 M104.997 104.203 L 64.800 144.406 64.800 151.803 L 64.800 159.200 200.345 159.200 L 335.890 159.200 336.145 151.593 L 336.400 143.987 296.397 103.993 L 256.394 64.000 200.794 64.000 L 145.194 64.000 104.997 104.203 M175.213 88.200 L 176.404 92.400 181.479 92.800 L 186.554 93.200 182.877 95.784 C 178.807 98.643,178.671 99.098,180.409 104.024 C 182.001 108.538,181.611 108.693,177.173 105.304 L 173.437 102.451 169.793 105.234 C 165.344 108.631,165.063 108.430,166.830 103.110 C 168.386 98.424,168.796 99.267,162.711 94.644 L 160.400 92.889 165.359 92.844 L 170.318 92.800 171.705 88.400 C 173.419 82.965,173.722 82.947,175.213 88.200 M232.295 88.400 L 233.682 92.800 238.641 92.827 C 244.116 92.856,244.132 92.749,237.990 97.228 L 235.757 98.855 237.160 103.080 C 238.938 108.432,238.660 108.634,234.207 105.234 L 230.563 102.451 226.827 105.304 C 222.246 108.802,221.896 108.543,223.939 103.168 C 225.740 98.426,225.925 98.808,220.000 95.000 L 217.200 93.200 222.398 92.800 L 227.596 92.400 228.787 88.200 C 230.278 82.947,230.581 82.965,232.295 88.400 M151.267 124.800 C 156.928 124.800,157.070 125.259,152.384 128.400 C 148.376 131.087,148.324 131.250,150.000 136.000 C 151.734 140.914,151.538 141.197,148.200 138.601 C 143.421 134.885,143.429 134.885,139.179 137.939 C 136.991 139.511,135.200 140.674,135.200 140.524 C 135.200 140.374,135.896 138.227,136.747 135.754 L 138.294 131.258 134.157 128.229 L 130.020 125.200 135.134 124.800 L 140.247 124.400 141.333 121.200 C 141.930 119.440,142.637 117.460,142.903 116.800 C 143.205 116.049,143.975 117.322,144.960 120.200 L 146.533 124.800 151.267 124.800 M202.413 120.200 L 203.604 124.400 208.792 124.800 L 213.980 125.200 209.895 128.191 L 205.809 131.183 207.305 135.716 C 208.127 138.209,208.800 140.372,208.800 140.523 C 208.800 140.674,207.009 139.511,204.821 137.939 C 200.571 134.885,200.579 134.885,195.800 138.601 C 192.462 141.197,192.266 140.914,194.000 136.000 C 195.676 131.250,195.624 131.087,191.616 128.400 C 186.926 125.257,187.071 124.800,192.759 124.800 L 197.518 124.800 198.905 120.400 C 200.619 114.965,200.922 114.947,202.413 120.200 M259.695 120.367 L 261.071 124.733 266.317 124.967 L 271.563 125.200 267.416 128.174 L 263.268 131.148 264.834 135.699 C 265.695 138.202,266.400 140.405,266.400 140.593 C 266.400 140.782,264.642 139.646,262.493 138.068 C 257.773 134.603,258.161 134.621,254.278 137.696 C 250.340 140.815,249.880 140.377,251.614 135.158 C 252.474 132.568,252.697 130.823,252.207 130.506 C 244.321 125.416,244.119 124.800,250.343 124.800 L 255.086 124.800 256.366 120.400 C 257.940 114.983,257.998 114.983,259.695 120.367 M306.006 177.582 C 305.730 178.452,304.355 180.586,302.952 182.323 C 301.548 184.060,299.365 186.979,298.100 188.808 C 296.270 191.454,295.452 192.034,294.100 191.645 C 293.165 191.377,290.005 190.937,287.079 190.669 C 282.504 190.250,281.636 189.916,280.896 188.291 C 279.390 184.987,274.400 186.221,274.400 189.897 C 274.400 190.764,274.968 192.102,275.663 192.869 C 276.816 194.144,276.799 194.459,275.463 196.501 C 274.002 198.733,274.000 198.721,273.777 188.168 L 273.554 177.600 266.777 177.600 L 260.000 177.600 260.000 200.400 L 260.000 223.200 266.800 223.200 L 273.600 223.200 273.600 211.850 L 273.600 200.501 275.800 202.581 C 278.013 204.675,281.263 205.610,282.861 204.614 C 285.379 203.044,288.273 205.807,286.240 207.840 C 285.493 208.587,285.563 208.800,286.554 208.800 C 287.255 208.800,288.036 208.260,288.289 207.600 C 289.102 205.482,290.135 206.319,289.771 208.800 C 289.503 210.621,289.730 211.200,290.709 211.200 C 291.419 211.200,292.015 210.570,292.033 209.800 C 292.082 207.764,297.375 213.953,297.993 216.770 C 298.280 218.073,299.318 219.362,300.527 219.912 C 302.005 220.586,302.460 221.284,302.162 222.423 C 301.905 223.406,302.149 224.000,302.809 224.000 C 304.491 224.000,303.700 218.533,301.346 213.887 C 300.205 211.637,299.464 209.603,299.699 209.368 C 299.934 209.133,299.493 206.931,298.719 204.476 C 297.341 200.104,297.345 199.973,298.926 198.205 C 299.814 197.212,301.017 195.140,301.598 193.600 C 302.180 192.060,303.444 189.720,304.407 188.400 C 305.370 187.080,306.353 184.380,306.591 182.400 C 306.829 180.420,307.282 178.170,307.597 177.400 C 307.927 176.596,307.817 176.000,307.340 176.000 C 306.882 176.000,306.282 176.712,306.006 177.582 M27.346 195.861 C 27.732 223.583,27.534 223.403,57.148 223.040 C 85.104 222.697,84.292 223.485,84.641 196.343 L 84.882 177.600 78.041 177.600 L 71.200 177.600 71.200 192.692 C 71.200 212.947,71.912 212.000,56.689 212.000 C 40.515 212.000,40.800 212.368,40.800 191.481 L 40.800 177.600 33.946 177.600 L 27.092 177.600 27.346 195.861 M95.358 178.938 C 91.350 180.914,90.008 184.105,90.032 191.600 C 90.071 203.290,92.216 204.455,115.084 205.206 C 133.380 205.807,136.199 206.705,132.768 210.838 C 130.921 213.064,104.988 212.489,103.948 210.200 C 103.177 208.504,102.732 208.415,96.270 208.661 L 89.410 208.923 89.953 213.061 C 91.221 222.733,93.025 223.370,118.227 223.050 C 144.826 222.714,148.223 220.833,146.981 207.136 C 146.158 198.057,144.017 197.115,122.457 196.343 C 105.853 195.748,103.200 195.158,103.200 192.057 C 103.200 188.038,128.316 186.897,130.874 190.800 C 132.102 192.674,132.612 192.800,139.002 192.800 L 145.820 192.800 145.282 188.216 C 144.101 178.169,142.590 177.595,117.426 177.618 C 101.124 177.634,97.575 177.846,95.358 178.938 M164.178 191.000 C 160.246 198.370,154.787 208.630,152.048 213.800 L 147.067 223.200 154.720 223.200 L 162.373 223.200 164.400 219.200 L 166.427 215.200 180.800 215.200 L 195.173 215.200 197.200 219.200 L 199.227 223.200 206.880 223.200 C 211.089 223.200,214.413 222.911,214.267 222.557 C 214.120 222.204,208.600 211.951,202.000 199.772 L 190.000 177.630 180.664 177.615 L 171.328 177.600 164.178 191.000 M198.488 181.000 C 199.435 182.870,200.920 185.408,201.788 186.641 L 203.367 188.882 212.684 188.744 L 222.000 188.605 222.216 205.903 L 222.431 223.200 229.200 223.200 L 235.969 223.200 236.184 205.906 L 236.400 188.611 246.200 188.747 L 256.000 188.883 256.000 183.241 L 256.000 177.600 226.384 177.600 L 196.767 177.600 198.488 181.000 M312.800 200.442 L 312.800 223.283 338.200 223.042 C 374.035 222.701,373.200 223.238,373.200 200.541 C 373.200 177.349,373.654 177.643,337.800 177.618 L 312.800 177.600 312.800 200.442 M358.076 190.530 C 359.590 192.047,360.541 201.265,359.666 205.932 C 358.590 211.663,357.557 212.000,341.049 212.000 L 326.400 212.000 326.400 200.533 C 326.400 194.227,326.549 188.917,326.731 188.733 C 327.832 187.623,356.833 189.285,358.076 190.530 M185.205 196.600 C 187.386 200.890,189.297 204.670,189.452 205.000 C 189.607 205.330,185.743 205.600,180.867 205.600 C 175.990 205.600,172.000 205.375,172.000 205.100 C 172.000 204.178,180.256 188.800,180.751 188.800 C 181.019 188.800,183.024 192.310,185.205 196.600 M292.800 193.514 C 292.800 194.439,290.784 195.200,288.335 195.200 C 286.450 195.200,285.857 194.410,286.933 193.333 C 287.733 192.534,292.800 192.691,292.800 193.514 M0.000 261.802 L 0.000 282.804 58.602 341.402 L 117.204 400.000 200.804 400.000 L 284.404 400.000 342.202 342.198 L 400.000 284.396 400.000 262.598 L 400.000 240.800 375.600 240.800 L 351.200 240.800 351.200 251.397 L 351.200 261.995 307.003 306.197 L 262.805 350.400 200.800 350.400 L 138.795 350.400 94.597 306.197 L 50.400 261.995 50.400 251.397 L 50.400 240.800 25.200 240.800 L 0.000 240.800 0.000 261.802 M64.800 248.621 L 64.800 256.443 70.220 261.821 C 73.201 264.780,75.811 267.200,76.020 267.199 C 76.229 267.199,76.400 261.259,76.400 253.999 L 76.400 240.799 70.600 240.800 L 64.800 240.800 64.800 248.621 M99.200 265.811 L 99.200 290.821 110.400 302.000 L 121.600 313.179 121.600 276.989 L 121.600 240.800 110.400 240.800 L 99.200 240.800 99.200 265.811 M144.194 288.048 L 144.400 335.295 155.400 335.448 L 166.400 335.600 166.400 288.200 L 166.400 240.800 155.194 240.800 L 143.987 240.800 144.194 288.048 M189.600 288.200 L 189.600 335.600 200.600 335.448 L 211.600 335.295 211.806 288.048 L 212.013 240.800 200.806 240.800 L 189.600 240.800 189.600 288.200 M234.399 288.200 L 234.399 335.600 245.399 335.432 L 256.400 335.264 256.606 288.032 L 256.813 240.800 245.606 240.800 L 234.400 240.800 234.399 288.200 M279.200 276.989 L 279.200 313.179 290.400 302.000 L 301.600 290.821 301.600 265.811 L 301.600 240.800 290.400 240.800 L 279.200 240.800 279.200 276.989 M324.800 254.179 L 324.800 267.557 330.400 262.000 L 336.000 256.443 336.000 248.621 L 336.000 240.800 330.400 240.800 L 324.800 240.800 324.800 254.179 " stroke="none" fill="#000000" fill-rule="evenodd"></path></g></svg>